#!OML:ASF E:\inclinewalkrobotboard\Project 1\Capture day 1\Session 1\subject1.ASF
:FULLY-SPECIFIED
:DEGREES
177
root 9.35398 16.9482 22.6301 -167.832 6.90931 178.292
lowerback -3.86248 5.07863 -12.1408
upperback 1.60216 7.7027 -2.48379
thorax 2.63982 3.70537 4.51666
lowerneck -8.33403 -1.02339 -3.75604
upperneck 24.8765 -4.07516 6.54233
head 9.37651 -2.16918 2.37411
rclavicle 2.32578e-014 -5.56597e-015
rhumerus -15.1626 -11.3592 -87.7749
rradius 25.4646
rwrist 14.6343
rhand -12.6526 -37.5224
rfingers 7.12502
rthumb 13.4281 -67.0696
lclavicle 2.32578e-014 -5.56597e-015
lhumerus -43.434 28.2939 56.4114
lradius 5.51775
lwrist -43.8233
lhand -24.4671 -16.5574
lfingers 7.12502
lthumb 2.0262 13.4127
rfemur -0.0497276 13.3941 8.98777
rtibia 14.5344
rfoot -23.8444 -5.84443
rtoes -40.1304
lfemur -25.6544 -9.17494 -8.66409
ltibia 15.8902
lfoot -13.8678 10.9698
ltoes -60.1227
178
root 9.24948 17.0197 22.449 -166.49 7.04245 179.377
lowerback -4.92558 5.24929 -12.0355
upperback 1.44494 8.08143 -2.68179
thorax 3.05319 3.87648 4.37504
lowerneck -8.97708 -1.49895 -4.11523
upperneck 24.7575 -4.82699 7.39709
head 9.53379 -2.43112 2.64734
rclavicle -5.88403e-014 -4.05521e-014
rhumerus -15.9333 -12.3569 -87.3799
rradius 25.6139
rwrist 13.7497
rhand -12.4596 -37.5044
rfingers 7.12502
rthumb 13.6141 -67.0392
lclavicle -5.88403e-014 -4.05521e-014
lhumerus -42.0492 27.3392 57.2726
lradius 6.12518
lwrist -43.9165
lhand -25.1444 -16.9693
lfingers 7.12502
lthumb 1.37211 13.0061
rfemur -0.962044 13.0717 9.4158
rtibia 14.2621
rfoot -22.5602 -4.65031
rtoes -39.2347
lfemur -25.6317 -9.34112 -7.80076
ltibia 14.8261
lfoot -14.2863 11.4172
ltoes -59.8051
179
root 9.12433 17.0856 22.2708 -165.396 6.38631 180.629
lowerback -5.53953 5.18147 -11.2477
upperback 1.16894 7.99267 -2.75061
thorax 3.22682 3.84217 3.93808
lowerneck -9.00824 -1.78821 -4.31629
upperneck 24.5981 -5.36419 8.08177
head 9.54503 -2.62945 2.85928
rclavicle 6.12257e-014 -1.98785e-014
rhumerus -17.1919 -12.9603 -86.8939
rradius 25.6592
rwrist 13.1921
rhand -12.1584 -37.3312
rfingers 7.12502
rthumb 13.9043 -66.8463
lclavicle 6.12257e-014 -1.98785e-014
lhumerus -41.4319 26.2803 57.6754
lradius 6.86281
lwrist -43.7986
lhand -25.8736 -17.6252
lfingers 7.12502
lthumb 0.667785 12.3535
rfemur -1.16095 12.3256 10.1859
rtibia 13.2986
rfoot -21.2789 -3.65446
rtoes -38.8894
lfemur -25.6337 -9.81902 -6.77887
ltibia 13.905
lfoot -14.4042 11.4223
ltoes -59.5541
180
root 9.01452 17.1434 22.1259 -164.473 5.97567 181.953
lowerback -5.77517 5.11539 -10.572
upperback 0.873249 7.84215 -2.70583
thorax 3.14337 3.78689 3.62723
lowerneck -8.94383 -1.93675 -4.24802
upperneck 24.3112 -5.64302 8.44437
head 9.46187 -2.71685 2.94065
rclavicle -4.37326e-015 7.15625e-015
rhumerus -18.5302 -12.9402 -86.4584
rradius 25.7772
rwrist 12.9694
rhand -11.3494 -37.1281
rfingers 7.12502
rthumb 14.6839 -66.5881
lclavicle -4.37326e-015 7.15625e-015
lhumerus -40.7632 25.6844 58.104
lradius 7.47156
lwrist -43.72
lhand -26.0833 -17.1795
lfingers 7.12502
lthumb 0.465264 12.7998
rfemur -1.68551 11.9309 11.0643
rtibia 12.7067
rfoot -21.0144 -3.28438
rtoes -42.1602
lfemur -25.8281 -9.90039 -5.57088
ltibia 13.5826
lfoot -14.6855 11.3062
ltoes -59.4277
181
root 8.91469 17.1901 21.9991 -163.864 5.81475 182.959
lowerback -5.75777 5.00703 -10.3362
upperback 0.738226 7.64763 -2.58813
thorax 3.02799 3.69837 3.60349
lowerneck -8.83857 -2.01198 -4.15151
upperneck 23.7966 -5.70735 8.59472
head 9.26872 -2.71636 2.96622
rclavicle -9.34288e-014 1.43125e-014
rhumerus -19.6308 -12.2777 -86.0097
rradius 25.7804
rwrist 12.8802
rhand -10.6181 -36.6197
rfingers 7.12502
rthumb 15.3884 -66.027
lclavicle -9.34288e-014 1.43125e-014
lhumerus -39.9373 25.6179 58.7255
lradius 7.97299
lwrist -43.9995
lhand -26.1555 -15.6466
lfingers 7.12502
lthumb 0.395584 14.3327
rfemur -2.31203 11.6691 11.6073
rtibia 12.5518
rfoot -20.4757 -2.46406
rtoes -42.5786
lfemur -26.0016 -10.0821 -4.76181
ltibia 13.7631
lfoot -15.1926 11.1613
ltoes -59.2023
182
root 8.81462 17.2282 21.8801 -163.646 5.78232 183.489
lowerback -5.532 4.90044 -10.4857
upperback 0.860894 7.48849 -2.49474
thorax 3.02068 3.61095 3.75564
lowerneck -8.9085 -2.0848 -4.14237
upperneck 23.1729 -5.71807 8.79168
head 9.07219 -2.68166 3.02668
rclavicle 2.78299e-015 4.77083e-015
rhumerus -20.269 -11.9739 -85.3813
rradius 25.4926
rwrist 13.9068
rhand -9.55583 -36.6378
rfingers 7.12502
rthumb 16.4113 -65.9636
lclavicle 2.78299e-015 4.77083e-015
lhumerus -39.1747 25.6447 59.3885
lradius 8.75334
lwrist -44.2249
lhand -25.7499 -15.8682
lfingers 7.12502
lthumb 0.787268 14.1101
rfemur -2.80108 11.4909 11.6886
rtibia 12.6525
rfoot -20.8483 -2.35457
rtoes -44.0086
lfemur -25.8613 -10.5606 -4.62015
ltibia 13.9849
lfoot -15.7475 11.0087
ltoes -58.8125
183
root 8.71774 17.259 21.7679 -163.559 5.93801 183.824
lowerback -5.33527 4.85026 -10.8104
upperback 1.08106 7.4308 -2.39428
thorax 3.09867 3.56354 4.02254
lowerneck -8.94718 -2.15791 -4.06964
upperneck 22.4918 -5.72261 8.94794
head 8.8487 -2.64451 3.0622
rclavicle -1.35174e-014 2.54444e-014
rhumerus -20.6889 -12.5337 -84.4648
rradius 24.9654
rwrist 16.2192
rhand -8.08294 -37.2307
rfingers 7.12502
rthumb 17.829 -66.4334
lclavicle -1.35174e-014 2.54444e-014
lhumerus -38.7305 25.5132 59.898
lradius 9.90375
lwrist -44.2045
lhand -24.8752 -18.226
lfingers 7.12502
lthumb 1.63213 11.7475
rfemur -3.38337 11.4703 11.593
rtibia 12.9269
rfoot -20.8037 -2.36754
rtoes -44.5763
lfemur -25.5445 -10.9196 -4.773
ltibia 14.155
lfoot -16.3715 10.9774
ltoes -58.4741
184
root 8.62344 17.2855 21.6607 -163.461 6.18585 184.25
lowerback -5.17064 4.81303 -11.0351
upperback 1.24043 7.37043 -2.20497
thorax 3.13103 3.51673 4.32736
lowerneck -8.8221 -2.16924 -4.0464
upperneck 21.9121 -5.6702 9.09511
head 8.62732 -2.59965 3.11094
rclavicle 6.91771e-014 -7.15625e-014
rhumerus -21.2992 -13.1897 -83.4279
rradius 24.3475
rwrist 17.6221
rhand -8.25556 -36.9282
rfingers 7.12502
rthumb 17.6629 -66.1459
lclavicle 6.91771e-014 -7.15625e-014
lhumerus -38.6074 25.3065 60.1971
lradius 11.1561
lwrist -44.3106
lhand -24.1245 -19.1556
lfingers 7.12502
lthumb 2.35714 10.8111
rfemur -4.10941 11.5744 11.6243
rtibia 13.2291
rfoot -20.5677 -2.58039
rtoes -44.5359
lfemur -25.2995 -11.0339 -4.81599
ltibia 14.4832
lfoot -16.9513 11.1774
ltoes -58.8563
185
root 8.52836 17.3094 21.5518 -163.458 6.4477 184.678
lowerback -4.97019 4.81208 -11.1133
upperback 1.34803 7.33806 -2.02301
thorax 3.10265 3.49156 4.54075
lowerneck -8.60663 -2.15728 -4.04214
upperneck 21.6023 -5.66978 9.29807
head 8.48777 -2.59033 3.17848
rclavicle -4.53229e-014 6.36111e-015
rhumerus -22.2658 -14.0625 -82.3425
rradius 23.7766
rwrist 18.0133
rhand -9.93215 -36.2784
rfingers 7.12502
rthumb 16.049 -65.6338
lclavicle -4.53229e-014 6.36111e-015
lhumerus -36.9377 20.2931 64.3149
lradius 12.3459
lwrist -39.0205
lhand -23.7032 -17.6693
lfingers 7.12502
lthumb 2.76403 12.2925
rfemur -4.77537 11.6267 11.6697
rtibia 13.3767
rfoot -20.315 -2.80015
rtoes -43.4399
lfemur -24.9313 -10.9769 -4.90383
ltibia 14.7903
lfoot -17.5106 11.017
ltoes -58.8127
